<svg width="17" height="15" viewBox="0 0 17 15" fill="none" xmlns="http://www.w3.org/2000/svg">
<path d="M15.5059 5.97656H1.49414C0.670238 5.97656 0 6.6468 0 7.4707V10.459C0 11.2829 0.670238 11.9531 1.49414 11.9531H3.51953V11.4551C3.51953 10.6312 4.18977 9.96094 5.01367 9.96094H11.9863C12.8102 9.96094 13.4805 10.6312 13.4805 11.4551V11.9531H15.5059C16.3298 11.9531 17 11.2829 17 10.459V7.4707C17 6.6468 16.3298 5.97656 15.5059 5.97656ZM10.4922 8.4668C10.2171 8.4668 9.99414 8.2438 9.99414 7.96875C9.99414 7.69363 10.2171 7.4707 10.4922 7.4707C10.7672 7.4707 10.9902 7.69363 10.9902 7.96875C10.9902 8.2438 10.7672 8.4668 10.4922 8.4668ZM12.4844 8.4668C12.2093 8.4668 11.9863 8.2438 11.9863 7.96875C11.9863 7.69363 12.2093 7.4707 12.4844 7.4707C12.7594 7.4707 12.9824 7.69363 12.9824 7.96875C12.9824 8.2438 12.7594 8.4668 12.4844 8.4668Z" fill="#2196F3"/>
<path d="M10.9902 0.050293V1.99208H12.932C12.7335 1.0178 11.9645 0.248848 10.9902 0.050293Z" fill="#2196F3"/>
<path d="M4.51562 0C4.24034 0 4.01758 0.22276 4.01758 0.498047V4.98047H12.9824V2.98828H10.4922C10.2169 2.98828 9.99414 2.76552 9.99414 2.49023V0H4.51562Z" fill="#2196F3"/>
<path d="M11.9863 14.9414C12.2616 14.9414 12.4844 14.7186 12.4844 14.4434V11.4551C12.4844 11.1798 12.2616 10.957 11.9863 10.957H5.01367C4.73838 10.957 4.51562 11.1798 4.51562 11.4551V14.4434C4.51562 14.7186 4.73838 14.9414 5.01367 14.9414H11.9863ZM6.50781 12.4512H10.4922C10.7675 12.4512 10.9902 12.6739 10.9902 12.9492C10.9902 13.2245 10.7675 13.4473 10.4922 13.4473H6.50781C6.23253 13.4473 6.00977 13.2245 6.00977 12.9492C6.00977 12.6739 6.23253 12.4512 6.50781 12.4512Z" fill="#2196F3"/>
</svg>
