<svg width="18" height="17" viewBox="0 0 18 17" fill="none" xmlns="http://www.w3.org/2000/svg">
<path d="M13.0441 0.342773L17.1096 4.40826V0.342773H13.0441ZM17.1096 12.5392L13.0441 16.6047H17.1096V12.5392ZM4.91315 16.6047L0.847656 12.5392V16.6047H4.91315ZM0.847656 4.40826L4.91315 0.342773H0.847656V4.40826ZM14.0097 3.44271C11.235 0.668013 6.72229 0.668013 3.94759 3.44271C1.1729 6.21741 1.1729 10.7301 3.94759 13.5048C6.72229 16.2795 11.235 16.2795 14.0097 13.5048C16.7844 10.7301 16.7844 6.22757 14.0097 3.44271ZM12.8917 12.3868C10.7268 14.5517 7.23048 14.5517 5.0656 12.3868C2.90073 10.2219 2.90073 6.72559 5.0656 4.56072C7.23048 2.39585 10.7268 2.39585 12.8917 4.56072C15.0565 6.72559 15.0565 10.2219 12.8917 12.3868Z" fill="#ffffff"/>
</svg>
