<svg width="15" height="15" viewBox="0 0 15 15" fill="none" xmlns="http://www.w3.org/2000/svg">
<path d="M14.576 11.0085L12.4827 8.91518C11.7351 8.16758 10.4641 8.46665 10.1651 9.43851C9.94082 10.1114 9.19322 10.4852 8.52038 10.3356C7.02517 9.96183 5.00664 8.01806 4.63283 6.44809C4.40855 5.77522 4.85712 5.02761 5.52996 4.80336C6.50184 4.50432 6.80089 3.23339 6.05328 2.48578L3.95999 0.392492C3.36191 -0.130831 2.46478 -0.130831 1.94146 0.392492L0.521011 1.81294C-0.899437 3.30815 0.670532 7.27045 4.18427 10.7842C7.69801 14.2979 11.6603 15.9427 13.1555 14.4475L14.576 13.027C15.0993 12.4289 15.0993 11.5318 14.576 11.0085Z" fill="#2196F3"/>
</svg>
