<svg width="17" height="13" viewBox="0 0 17 13" fill="none" xmlns="http://www.w3.org/2000/svg">
<path d="M15.5053 0H1.49363C1.26364 0 1.04832 0.0565446 0.853516 0.149745L8.46624 7.76247L10.1725 6.12268C10.1725 6.12268 10.1726 6.12251 10.1727 6.12245C10.1727 6.12238 10.1728 6.12231 10.1728 6.12231L16.1456 0.149878C15.9508 0.0566109 15.7353 0 15.5053 0Z" fill="#2196F3"/>
<path d="M16.8492 0.854004L11.2285 6.47439L16.849 12.0949C16.9422 11.9001 16.9987 11.6848 16.9987 11.4548V1.49389C16.9987 1.26403 16.9423 1.04874 16.8492 0.854004Z" fill="#2196F3"/>
<path d="M0.149745 0.854004C0.0565445 1.04881 0 1.26413 0 1.49412V11.455C0 11.6849 0.0564781 11.9002 0.149612 12.0949L5.7703 6.47456L0.149745 0.854004Z" fill="#2196F3"/>
<path d="M10.5251 7.17878L8.81862 8.81877C8.72134 8.91605 8.59391 8.9647 8.46651 8.9647C8.33911 8.9647 8.21164 8.91605 8.11439 8.81877L6.4743 7.17871L0.853516 12.7991C1.04835 12.8924 1.2638 12.949 1.49387 12.949H15.5055C15.7355 12.949 15.9508 12.8925 16.1456 12.7993L10.5251 7.17878Z" fill="#2196F3"/>
</svg>
