<svg width="25" height="25" viewBox="0 0 25 25" fill="none" xmlns="http://www.w3.org/2000/svg">
<g clip-path="url(#clip0)">
<path d="M12.5 3.5542C11.2885 3.5542 10.3027 4.51093 10.3027 5.68684C10.3027 6.86275 11.2885 7.81948 12.5 7.81948C13.7115 7.81948 14.6973 6.86275 14.6973 5.68684C14.6973 4.51093 13.7115 3.5542 12.5 3.5542Z" fill="#2196F3"/>
<path d="M12.5 0C9.26914 0 6.64062 2.55121 6.64062 5.68704C6.64062 6.76243 6.95171 7.81005 7.54051 8.71661L12.5 16.3976L17.4595 8.71661C18.0483 7.81005 18.3594 6.76243 18.3594 5.68704C18.3594 2.55121 15.7309 0 12.5 0ZM12.5 9.24144C10.4809 9.24144 8.83789 7.64677 8.83789 5.68704C8.83789 3.72731 10.4809 2.13264 12.5 2.13264C14.5191 2.13264 16.1621 3.72731 16.1621 5.68704C16.1621 7.64677 14.5191 9.24144 12.5 9.24144Z" fill="#2196F3"/>
<path d="M8.93555 24.2648H16.0624L15.4991 19.9521H9.48467L8.93555 24.2648Z" fill="#2196F3"/>
<path d="M9.66797 18.53H12.154L10.0794 15.3364L9.66797 18.53Z" fill="#2196F3"/>
<path d="M16.7882 18.5304H22.5585L20.7275 14.2651H16.2246L16.7882 18.5304Z" fill="#2196F3"/>
<path d="M2.44141 18.5304H8.19168L8.741 14.2651H4.27246L2.44141 18.5304Z" fill="#2196F3"/>
<path d="M12.8457 18.5301H15.3104L14.894 15.3774L12.8457 18.5301Z" fill="#2196F3"/>
<path d="M8.00838 19.9521H1.83086L0 24.2648H7.45926L8.00838 19.9521Z" fill="#2196F3"/>
<path d="M23.1695 19.9521H16.9766L17.54 24.2648H25.0004L23.1695 19.9521Z" fill="#2196F3"/>
</g>
<defs>
<clipPath id="clip0">
<rect width="25" height="24.2647" fill="white"/>
</clipPath>
</defs>
</svg>
