<svg width="17" height="14" viewBox="0 0 17 14" fill="none" xmlns="http://www.w3.org/2000/svg">
<path d="M8.4996 5.46387C6.99074 5.46387 5.76758 6.68703 5.76758 8.19588C5.76758 9.70473 6.99074 10.9279 8.4996 10.9279C10.0084 10.9279 11.2316 9.70473 11.2316 8.19588C11.2298 6.6878 10.0077 5.46571 8.4996 5.46387ZM8.4996 9.10656C7.99665 9.10656 7.58892 8.69883 7.58892 8.19588C7.58892 7.69293 7.99665 7.28521 8.4996 7.28521C9.00255 7.28521 9.41027 7.69293 9.41027 8.19588C9.41027 8.69883 9.00255 9.10656 8.4996 9.10656Z" fill="#2196F3"/>
<path d="M8.50082 8.4997C8.66848 8.4997 8.80438 8.36379 8.80438 8.19614C8.80438 8.02849 8.66848 7.89258 8.50082 7.89258C8.33317 7.89258 8.19727 8.02849 8.19727 8.19614C8.19727 8.36379 8.33317 8.4997 8.50082 8.4997Z" fill="#2196F3"/>
<path d="M16.888 2.70166C15.8689 1.88843 13.0115 0 8.49976 0C3.98798 0 1.1306 1.88843 0.111558 2.70166C0.0136595 2.78099 -0.0244926 2.91289 0.015937 3.03223L1.02102 5.74695C1.06752 5.90007 1.22433 5.99132 1.38043 5.9561L4.31826 5.27795C4.45637 5.24606 4.55403 5.12282 4.55351 4.98107V3.62417C4.55458 3.33411 4.69268 3.06162 4.92598 2.88926C5.97223 2.15996 7.2249 1.78564 8.49976 1.82134C9.77447 1.78566 11.027 2.15987 12.0732 2.88896C12.3067 3.06135 12.4449 3.33396 12.446 3.62417V4.98107C12.4461 5.12237 12.5436 5.24495 12.6813 5.27674L15.6191 5.95489C15.7716 5.98995 15.9258 5.90334 15.9752 5.75484L16.9866 3.02282C17.0229 2.90567 16.9838 2.77822 16.888 2.70166Z" fill="#2196F3"/>
<path d="M13.243 6.0295L12.5448 5.86861C12.1308 5.7744 11.8376 5.4056 11.839 4.98101V3.62411C11.8392 3.52631 11.7922 3.43443 11.7128 3.37732C10.771 2.72521 9.64483 2.39259 8.49991 2.4284C7.35491 2.39265 6.22864 2.72527 5.28676 3.37732C5.20748 3.4345 5.16059 3.52636 5.16078 3.62411V4.98101C5.16227 5.4056 4.86902 5.7744 4.45501 5.86861L3.75683 6.0295L0.654777 10.9414C0.624064 10.9901 0.607656 11.0465 0.607422 11.1041V13.0529C0.607422 13.2206 0.743329 13.3565 0.910979 13.3565H16.0888C16.2565 13.3565 16.3924 13.2206 16.3924 13.0529V11.1041C16.3921 11.046 16.3755 10.9892 16.3444 10.9401L13.243 6.0295ZM8.49991 11.5351C6.65576 11.5351 5.16078 10.0401 5.16078 8.19598C5.16078 6.35183 6.65576 4.85685 8.49991 4.85685C10.3441 4.85685 11.839 6.35183 11.839 8.19598C11.8369 10.0392 10.3432 11.5329 8.49991 11.5351Z" fill="#2196F3"/>
</svg>
